<?xml version="1.0"?>
<svg xmlns="http://www.w3.org/2000/svg" xmlns:xlink="http://www.w3.org/1999/xlink" width="512" height="512" viewBox="0 0 512 512"><defs><linearGradient id="a" x1="17" y1="495" x2="497.816" y2="14.184" gradientUnits="userSpaceOnUse"><stop offset="0" stop-color="#003f8a"/><stop offset="0.518" stop-color="#00d7df"/><stop offset="1" stop-color="#006df0"/></linearGradient><linearGradient id="b" x1="17.024" y1="495.024" x2="497.84" y2="14.209" xlink:href="#a"/><linearGradient id="c" x1="-83" y1="395" x2="397.816" y2="-85.816" xlink:href="#a"/><linearGradient id="d" x1="43" y1="521" x2="523.816" y2="40.184" xlink:href="#a"/><linearGradient id="e" x1="71" y1="549" x2="551.816" y2="68.184" xlink:href="#a"/></defs><g><path d="M496,216H451.98a200.568,200.568,0,0,0-29.12-70.29l31.13-31.13a8.015,8.015,0,0,0,0-11.32L408.74,58.01a8.015,8.015,0,0,0-11.32,0L366.29,89.14A200.568,200.568,0,0,0,296,60.02V16a8,8,0,0,0-8-8H224a8,8,0,0,0-8,8V60.02a200.568,200.568,0,0,0-70.29,29.12L114.58,58.01a8.015,8.015,0,0,0-11.32,0L58.01,103.26a8.015,8.015,0,0,0,0,11.32l31.13,31.13A200.568,200.568,0,0,0,60.02,216H16a8,8,0,0,0-8,8v64a8,8,0,0,0,8,8H60.02a200.568,200.568,0,0,0,29.12,70.29L58.01,397.42a8.015,8.015,0,0,0,0,11.32l45.25,45.25a8.015,8.015,0,0,0,11.32,0l31.13-31.13A200.568,200.568,0,0,0,216,451.98V496a8,8,0,0,0,8,8h64a8,8,0,0,0,8-8V451.98a200.568,200.568,0,0,0,70.29-29.12l31.13,31.13a8.015,8.015,0,0,0,11.32,0l45.25-45.25a8.015,8.015,0,0,0,0-11.32l-31.13-31.13A200.568,200.568,0,0,0,451.98,296H496a8,8,0,0,0,8-8V224A8,8,0,0,0,496,216Zm-8,64H445.33a8,8,0,0,0-7.89,6.68,184.285,184.285,0,0,1-31.45,75.93,7.99,7.99,0,0,0,.86,10.3l30.17,30.17-33.94,33.94-30.17-30.17a8,8,0,0,0-10.3-.86,184.285,184.285,0,0,1-75.93,31.45,8,8,0,0,0-6.68,7.89V488H232V445.33a8,8,0,0,0-6.68-7.89,184.285,184.285,0,0,1-75.93-31.45,8,8,0,0,0-10.3.86l-30.17,30.17L74.98,403.08l30.17-30.17a7.99,7.99,0,0,0,.86-10.3,184.285,184.285,0,0,1-31.45-75.93A8,8,0,0,0,66.67,280H24V232H66.67a8,8,0,0,0,7.89-6.68,184.285,184.285,0,0,1,31.45-75.93,7.99,7.99,0,0,0-.86-10.3L74.98,108.92l33.94-33.94,30.17,30.17a8,8,0,0,0,10.3.86,184.285,184.285,0,0,1,75.93-31.45A8,8,0,0,0,232,66.67V24h48V66.67a8,8,0,0,0,6.68,7.89,184.285,184.285,0,0,1,75.93,31.45,8,8,0,0,0,10.3-.86l30.17-30.17,33.94,33.94-30.17,30.17a7.99,7.99,0,0,0-.86,10.3,184.285,184.285,0,0,1,31.45,75.93,8,8,0,0,0,7.89,6.68H488Z" fill="url(#a)"/><path d="M256,96C167.78,96,96,167.78,96,256A160.123,160.123,0,0,0,289.56,412.47a.3.3,0,0,1,.1-.02.035.035,0,0,1,.02-.01A160.042,160.042,0,0,0,416,256C416,167.78,344.22,96,256,96Zm28.44,185.34a8.015,8.015,0,0,0-4.44,7.17V397.99a146.146,146.146,0,0,1-43,.76l-.24-.03c-1.08-.15-2.16-.3-3.24-.47-.22-.04-.44-.07-.66-.11-.29-.04-.57-.1-.86-.15V288.51a8.015,8.015,0,0,0-4.44-7.17A64.017,64.017,0,0,1,224,168.56V224a8.033,8.033,0,0,0,3.56,6.66l24,16a8.013,8.013,0,0,0,8.88,0l24-16A8.033,8.033,0,0,0,288,224V168.56a64.017,64.017,0,0,1-3.56,112.78Zm83.09,65.76A144.733,144.733,0,0,1,296,394.36V293.3a80.027,80.027,0,0,0-13.33-144.74A8,8,0,0,0,272,156.1v63.62l-16,10.66-16-10.66V156.1a8,8,0,0,0-10.67-7.54A80.027,80.027,0,0,0,216,293.3V394.36A144.039,144.039,0,0,1,112,256c0-79.4,64.6-144,144-144s144,64.6,144,144A144.263,144.263,0,0,1,367.53,347.1Z" fill="url(#b)"/><path d="M72,248H40a8,8,0,0,0,0,16H72a8,8,0,0,0,0-16Z" fill="url(#c)"/><path d="M256,344a8,8,0,0,0,8-8V280a8,8,0,0,0-16,0v56A8,8,0,0,0,256,344Z" fill="url(#d)"/><path d="M256,376a8,8,0,0,0,8-8v-8a8,8,0,0,0-16,0v8A8,8,0,0,0,256,376Z" fill="url(#e)"/></g></svg>
